<svg width="1216" height="530" viewBox="0 0 1216 530" fill="none" xmlns="http://www.w3.org/2000/svg">
<path d="M976.161 382.71C856.555 453.247 733.882 502.316 608.143 529.917C322.929 471.648 120.519 348.975 0.913391 161.9C405.733 -52.7776 810.553 -52.7776 1215.37 161.9C1068.17 260.038 878.023 309.107 644.945 309.107C460.936 302.973 313.729 272.305 203.323 217.102C718.548 327.508 1006.83 309.107 1068.17 161.9C847.355 57.6278 563.674 39.2269 217.124 106.697C106.719 125.098 63.7831 161.9 88.3176 217.102C118.986 272.305 187.989 329.041 295.328 387.311C503.871 479.315 730.816 477.782 976.161 382.71Z" fill="black"/>
</svg>
